HIERARCHY
ROOT hip
{
	OFFSET 0.000000 0.000000 0.000000 
	CHANNELS 6 Xposition Yposition Zposition Zrotation Xrotation Yrotation
	JOINT abdomen
	{
		OFFSET 0.000000 3.402643 0.000000 
		CHANNELS 3 Zrotation Xrotation Yrotation
		JOINT chest
		{
			OFFSET 0.000000 8.438565 -0.680529 
			CHANNELS 3 Zrotation Xrotation Yrotation
			JOINT neck
			{
				OFFSET 0.000000 10.207942 -0.272212 
				CHANNELS 3 Zrotation Xrotation Yrotation
				JOINT head
				{
					OFFSET 0.000000 3.130431 0.000000 
					CHANNELS 3 Zrotation Xrotation Yrotation
					End Site
					{
						OFFSET 0.000000 3.130435 0.000000 
					}
				}
			}
			JOINT lCollar
			{
				OFFSET 3.470700 6.669187 -0.816635 
				CHANNELS 3 Zrotation Xrotation Yrotation
				JOINT lShldr
				{
					OFFSET 3.198488 0.000000 0.000000 
					CHANNELS 3 Zrotation Xrotation Yrotation
					JOINT lForeArm
					{
						OFFSET 10.139888 0.000000 0.000000 
						CHANNELS 3 Zrotation Xrotation Yrotation
						JOINT lHand
						{
							OFFSET 8.370511 0.000000 0.000000 
							CHANNELS 3 Zrotation Xrotation Yrotation
							End Site
							{
								OFFSET 4.083176 0.000000 0.000000 
							}
						}
					}
				}
			}
			JOINT rCollar
			{
				OFFSET -3.470700 6.669187 -0.816635 
				CHANNELS 3 Zrotation Xrotation Yrotation
				JOINT rShldr
				{
					OFFSET -3.198488 0.000000 0.000000 
					CHANNELS 3 Zrotation Xrotation Yrotation
					JOINT rForeArm
					{
						OFFSET -10.139888 0.000000 0.000000 
						CHANNELS 3 Zrotation Xrotation Yrotation
						JOINT rHand
						{
							OFFSET -8.370511 0.000000 0.000000 
							CHANNELS 3 Zrotation Xrotation Yrotation
							End Site
							{
								OFFSET -4.083176 0.000000 0.000000 
							}
						}
					}
				}
			}
		}
	}
	JOINT lThigh
	{
		OFFSET 5.308129 -1.633274 1.361059 
		CHANNELS 3 Zrotation Xrotation Yrotation
		JOINT lShin
		{
			OFFSET -2.041588 -20.007561 0.000000 
			CHANNELS 3 Zrotation Xrotation Yrotation
			JOINT lFoot
			{
				OFFSET 0.000000 -19.190928 -1.224953 
				CHANNELS 3 Zrotation Xrotation Yrotation
				End Site
				{
					OFFSET 0.000000 -2.449906 4.627600 
				}
			}
		}
	}
	JOINT rThigh
	{
		OFFSET -5.308129 -1.633274 1.361059 
		CHANNELS 3 Zrotation Xrotation Yrotation
		JOINT rShin
		{
			OFFSET 2.041588 -20.007561 0.000000 
			CHANNELS 3 Zrotation Xrotation Yrotation
			JOINT rFoot
			{
				OFFSET 0.000000 -19.190928 -1.224953 
				CHANNELS 3 Zrotation Xrotation Yrotation
				End Site
				{
					OFFSET 0.000000 -2.449906 4.627600 
				}
			}
		}
	}
}
MOTION
Frames: 6
Frame Time: 0.033333
3.779318 48.645344 -3.696086 -0.352622 4.443265 -1.603540 0.119134 -10.371062 -2.517594 -0.029347 -3.339842 -0.812262 0.810547 -0.029296 -0.155836 0.900679 -4.042470 -0.190254 -7.559945 -0.974668 -3.340839 -77.337517 16.139050 12.104945 -5.404630 2.807548 -4.890951 8.824973 -15.409465 -8.385690 6.599921 5.445603 -0.799201 72.883644 -1.607584 3.575627 5.225466 22.856071 -3.064248 -2.446547 0.186414 4.603876 2.648756 -10.128541 -12.576639 -2.937027 4.096415 -0.427701 -1.791674 -0.018423 9.495944 -1.324488 -11.303490 8.486318 -0.167389 5.433583 0.198334 2.408555 2.031775 -4.188051 
3.792357 48.640038 -3.017940 -0.352479 4.130772 -1.605469 -0.140156 -12.714803 -2.823840 -0.048937 -3.818355 -1.087252 0.810547 -0.029296 -0.155836 0.902129 -5.184909 -0.172221 -7.660100 -1.019024 -3.330451 -77.825867 16.062611 13.036928 -6.373287 2.877117 -5.170716 8.789504 -15.360703 -7.899480 7.228801 5.182025 -1.196804 73.352043 -1.648899 2.120018 5.604897 22.759323 -2.959040 -2.544504 0.467740 4.461523 2.071342 -8.071517 -12.641089 -2.306772 2.615102 -0.552292 -1.586747 0.365306 9.574186 -1.063094 -10.341846 8.560396 -0.314463 6.052098 0.243022 2.277809 0.967257 -4.271619 
3.805271 48.627792 -2.342409 -0.352369 3.876870 -1.607094 -0.404238 -14.911751 -3.160664 -0.058755 -4.248041 -1.371540 0.810547 -0.029296 -0.155836 0.904239 -6.493339 -0.151639 -7.760227 -1.063413 -3.320058 -78.251556 15.994156 13.816300 -7.315764 2.936743 -5.407171 8.757558 -15.323841 -7.496899 7.853327 4.910038 -1.583199 73.861496 -1.689288 0.801130 5.933510 22.666029 -2.822526 -2.623423 0.695414 4.345514 1.699233 -6.131177 -13.073015 -2.217111 1.444272 -0.094724 -0.995499 0.551649 9.354659 -0.426795 -9.454311 8.372887 -0.719023 6.850862 0.336485 1.945949 -0.173517 -3.994518 
3.814595 48.584412 -1.835566 -0.352398 3.945228 -1.606673 -0.629426 -15.858460 -3.453363 -0.097926 -4.257807 -1.599067 0.810547 -0.029296 -0.155836 0.907948 -8.299756 -0.122678 -7.859965 -1.096762 -3.319327 -78.367210 15.935632 13.690035 -7.931549 2.970014 -5.386026 8.780946 -15.323657 -7.615182 8.359913 4.676886 -1.755287 74.428459 -1.689309 0.488493 5.982707 22.586189 -2.644049 -2.613675 0.637118 4.385522 1.450687 -4.930906 -12.885008 -1.815586 0.478330 -0.310196 -0.819876 0.815038 9.351544 -0.079255 -9.127638 8.495156 -0.779653 7.630630 0.346964 1.595303 -1.239888 -4.113142 
3.816859 48.485733 -1.663481 -0.352704 4.609278 -1.602575 -0.756323 -14.442149 -3.606733 -0.156543 -3.505842 -1.728323 0.810547 -0.029296 -0.155836 0.915148 -10.965433 -0.079662 -7.959324 -1.119005 -3.328245 -77.880898 15.920081 11.908359 -7.912911 2.931285 -4.879121 8.849144 -15.419151 -8.668528 8.631235 4.552358 -1.540522 75.076698 -1.619740 2.022292 5.491569 22.557743 -2.380773 -2.433542 0.042440 4.691645 1.520167 -5.278458 -12.895493 -1.741639 0.058627 -0.243647 -0.985592 0.851829 9.252030 0.198007 -9.832795 8.480390 -0.997223 8.125474 0.417860 1.547509 -1.679712 -4.110244 
3.809774 48.317070 -1.936692 -0.353515 6.025267 -1.593751 -0.743541 -9.921052 -3.555846 -0.254027 -1.767554 -1.726586 0.810547 -0.029296 -0.155836 0.928287 -14.568482 -0.020235 -8.029639 -1.127719 -3.376068 -76.650131 15.877981 7.982201 -7.025876 2.818094 -3.836034 9.011043 -15.626221 -10.904647 8.593004 4.590346 -0.833240 75.796318 -1.456958 5.949194 4.306594 22.562765 -1.989500 -2.066974 -1.261138 5.362959 2.058839 -7.536356 -12.782105 -2.412074 0.497764 -0.170328 -0.995935 1.198782 9.136079 0.308849 -11.882506 8.442944 -0.808890 8.215773 0.385678 1.406271 -1.130724 -4.102568 
